<?xml version="1.0" encoding="UTF-8"?>
<svg width="274px" height="54px" viewBox="0 0 274 54" version="1.1" xmlns="http://www.w3.org/2000/svg" xmlns:xlink="http://www.w3.org/1999/xlink">
    <!-- Generator: Sketch 42 (36781) - http://www.bohemiancoding.com/sketch -->
    <title>logo</title>
    <desc>Created with Sketch.</desc>
    <defs>
        <linearGradient x1="96.1807531%" y1="2.53425552%" x2="-4.49602885%" y2="2.53425557%" id="linearGradient-1">
            <stop stop-color="#FCBE39" offset="0%"></stop>
            <stop stop-color="#FF8D8D" offset="48.2576695%"></stop>
            <stop stop-color="#FCBE39" offset="100%"></stop>
        </linearGradient>
    </defs>
    <g id="Suxmane" stroke="none" stroke-width="1" fill="none" fill-rule="evenodd">
        <g id="logo">
            <text id="Suxmane" font-family="BrushScriptMT, Brush Script MT" font-size="48" font-weight="normal" letter-spacing="0.00104587153" fill="#FF8D8D">
                <tspan x="72" y="39">Suxmane </tspan>
            </text>
            <g id="Group" transform="translate(11.000000, 3.000000)">
                <path d="M6.28389054,16.1750591 C6.9525269,16.0857415 7.60498818,15.7010849 8.05247902,14.9315904 C8.79024403,13.6629475 8.16886038,12.1534947 8.05247902,11.7765909 C7.93609766,11.399687 6.87424204,9.56118097 4.79725145,9.07716362 C4.54349879,9.01802966 3.68508435,8.89003521 3.43266335,8.91301425 C3.30100184,8.925 0.302699164,9.09237909 0.302699164,10.8721414 C0.302699164,11.4906742 2.75448303,10.8539784 3.43266335,12.6746103 C3.72055164,13.4474705 3.95901594,14.7898517 4.09766709,15.0085629 C4.12841356,15.0570631 3.94012984,15.3278837 4.69134008,15.7988945 C5.44255031,16.2699054 5.66643227,16.2575403 6.28389054,16.1750591 Z" id="Oval" fill="#FDBE39"></path>
                <path d="M23.8115026,14.7250806 C24.4581078,15.4995243 21.8365319,17.8580522 21.5596758,17.9803066 C21.5596758,17.9803066 22.1858637,17.7474639 21.5596758,17.9803066 C20.9334879,18.2131492 21.5596758,17.9803066 21.5596758,17.9803066 C23.2723965,16.4445196 21.0776974,15.1995183 20.141234,15.1995183 L20.141234,15.1995183 C20.141234,15.1995183 15.3179669,14.6362808 10.338262,19.8934832 C7.84075167,22.530169 6.28567499,25.5644831 5.1312593,28.0705461 C4.43067313,29.5914134 4.35775973,30.4435494 3.78874216,33.9679778 C3.22172678,37.4800049 5.12773851,38.4402359 5.1312593,38.4386823 C5.13478008,38.4371287 5.1312593,38.4386823 5.1312593,38.4386823 C5.43487146,41.3920295 2.90192393,41.5978446 2.7423476,41.5813651 L2.7423476,41.5813651 C1.73981395,41.5813651 2.7423476,41.5813651 2.7423476,41.5813651 C1.16233634,40.9709095 0.567181331,36.9631458 0.943908739,35.1460864 C0.943908739,35.1460864 0.81271705,35.6392537 0.943908739,35.1460864 C1.07510043,34.6529191 2.64794719,27.125538 10.8712148,19.088349 C16.5809413,13.5078238 22.9407937,14.2609872 23.8115026,14.7250806 C24.6822114,15.1891741 23.8115026,14.7250806 23.8115026,14.7250806 Z" id="Rectangle" fill="url(#linearGradient-1)"></path>
                <path d="M34.8789713,22.1928481 C40.2260648,23.4229591 42.7143839,17.9531822 41.9944801,15.6217876 C41.668866,14.5672925 41.1598789,13.3405057 39.0277949,12.4678143 C36.8957109,11.5951228 34.5869459,12.0722634 33.0274751,12.6308824 C28.3686634,14.2997181 26.9499464,15.4797551 25.564986,16.1709262 C25.245802,16.3302166 29.8769062,13.8719747 33.6797719,12.8989006 C37.4826376,11.9258264 38.4692876,12.9334689 38.8177989,13.2915356 C39.775852,14.2758565 39.9379122,16.0606967 37.6400215,18.6009044 C35.4610775,21.009622 33.0274751,20.6295515 31.2325869,19.8756471 C30.3414205,19.5013317 33.7322939,21.9290523 34.8789713,22.1928481 Z" id="Oval-2" fill="#FF8D8D"></path>
                <path d="M18.5834926,2.13987547 C18.8175298,2.10319624 20.5699473,1.8215263 22.091501,3.83928336 C22.4500296,4.31473397 22.7596096,4.79539349 23.1093721,6.03056247 C23.4591346,7.26573145 23.3409898,6.80549219 23.3527602,6.88133819 C23.6698535,8.92461774 23.2594244,10.5757819 23.3527602,10.1860801 C23.5701842,9.27827671 23.6303762,4.7119152 22.6544023,2.73388577 C21.7944053,0.990909424 20.1927312,0.583818244 18.8196192,0.583818244 C16.8182897,0.583818244 14.7190198,2.3075008 15.2626968,2.99558824 C15.4238124,3.19949903 16.5481609,3.75559814 16.9113391,3.57070385 C17.7176965,3.16018676 17.7852315,2.2649821 18.5834926,2.13987547 Z" id="Oval-3" fill="#FDBE39"></path>
                <path d="M31.9449103,43.0308009 C32.2599496,43.2485352 34.7922131,42.915901 37.0210904,44.2999047 C37.8106396,44.790169 38.4542954,45.977218 39.6735352,46.5519607 C40.892775,47.1267034 45.8372579,48.0190066 47.2972531,45.4126563 C51.7493117,37.4649423 25.4156006,15.6838583 26.8087346,17.2970482 C32.0988169,23.4227384 42.6592718,37.615071 42.6592718,42.0400565 C42.6592718,44.7646794 31.220859,42.5303846 31.9449103,43.0308009 Z" id="Oval-5" fill="#FDBE39"></path>
                <path d="M21.3778613,28.7669489 C23.3815604,28.7669489 25.0405384,27.4311729 25.9127507,24.325 C26.5042403,22.2185528 26.6288438,19.2524407 26.5075187,19.8387806 C26.1696497,21.4716326 25.9930075,22.3026103 25.583391,22.9857114 C25.1480825,23.7116581 24.4150724,25.4561989 22.6795286,25.8698525 C19.0280751,26.7401486 17.9746763,25.0031851 17.5255053,24.325 C17.3444623,24.0516506 17.4752156,25.250157 17.5255053,25.4115031 C17.9313331,26.7135348 19.3741622,28.7669489 21.3778613,28.7669489 Z" id="Oval-4" fill="#FDBE39"></path>
            </g>
        </g>
    </g>
</svg>